<svg enable-background="new 0 0 100 100" viewBox="0 0 100 100" xmlns="http://www.w3.org/2000/svg"><g stroke="#2a2e31" stroke-miterlimit="10" stroke-width="4"><path d="m22.5 47h55.1v41h-55.1z" fill="#2a2e31"/><path d="m80.8 46.7h-60.9c-.7 0-1.2-.5-1.2-1.2v-15.3c0-.7.5-1.2 1.2-1.2h60.9c.7 0 1.2.5 1.2 1.2v15.3c0 .7-.5 1.2-1.2 1.2z" fill="#2a2e31"/><g fill="none"><path d="m41.8 29h17.3v59h-17.3z"/><path d="m51 29s-2.2-2-7-13c-3.9-8-13-8-17-3s-2 10 1 13c2 3 23 3 23 3z"/><path d="m50.9 28.7s2.2-2 7-13c3.9-8 13-8 17-3s2 10-1 13c-1.9 3-23 3-23 3z"/></g></g></svg>