<svg enable-background="new 0 0 100 100" viewBox="0 0 100 100" xmlns="http://www.w3.org/2000/svg"><g fill="none" stroke="#2d2d2d" stroke-miterlimit="10" stroke-width="4"><path d="m22.5 47h55.1v41h-55.1z"/><path d="m80.8 46.7h-60.9c-.7 0-1.2-.5-1.2-1.2v-15.3c0-.7.5-1.2 1.2-1.2h60.9c.7 0 1.2.5 1.2 1.2v15.3c0 .7-.5 1.2-1.2 1.2z"/><path d="m20.9 49.8h59v17.3h-59z" transform="matrix(0 1 -1 0 108.8645 8.1355)"/><path d="m51 29s-2.2-2-7-13c-3.9-8-13-8-17-3s-2 10 1 13c2 3 23 3 23 3z"/><path d="m50.9 28.7s2.2-2 7-13c3.9-8 13-8 17-3s2 10-1 13c-1.9 3-23 3-23 3z"/></g></svg>