
<svg version="1.1" xmlns="http://www.w3.org/2000/svg" xmlns:xlink="http://www.w3.org/1999/xlink" x="0px" y="0px" style="display:none" xml:space="preserve" >

	<symbol id="visa" viewBox="0 0 118 60">
		<title>Visa</title>
		<path fill="#F8F8F8" class="st1" d="M8.85,0h100.3c4.89,0,8.85,4.03,8.85,9v42c0,4.97-3.96,9-8.85,9H8.85C3.96,60,0,55.97,0,51V9
			C0,4.03,3.96,0,8.85,0z"/>
		<g id="g4158" transform="matrix(4.4299631,0,0,4.4299631,-81.165783,-105.04783)">
			<polygon id="polygon9" fill="#00579F" points="30.09,33.06 28.82,33.06 29.62,28.14 30.89,28.14 	"/>
			<path id="path11" fill="#00579F" d="M34.71,28.26c-0.25-0.1-0.65-0.21-1.14-0.21c-1.26,0-2.14,0.67-2.15,1.63
				c-0.01,0.71,0.63,1.1,1.12,1.33c0.49,0.24,0.66,0.4,0.66,0.61c-0.01,0.33-0.4,0.48-0.76,0.48c-0.51,0-0.78-0.08-1.19-0.26
				l-0.17-0.08l-0.18,1.1c0.3,0.14,0.85,0.26,1.42,0.26c1.33,0,2.2-0.66,2.21-1.68c0.01-0.56-0.33-0.99-1.07-1.34
				c-0.44-0.23-0.72-0.38-0.72-0.61c0.01-0.21,0.23-0.42,0.73-0.42c0.41-0.01,0.72,0.09,0.95,0.19l0.12,0.05L34.71,28.26
				C34.71,28.26,34.71,28.26,34.71,28.26z"/>
			<path id="path13" fill="#00579F" d="M36.4,31.32c0.1-0.28,0.51-1.38,0.51-1.38c-0.01,0.01,0.1-0.29,0.17-0.47l0.09,0.42
				c0,0,0.24,1.18,0.29,1.42C37.26,31.32,36.65,31.32,36.4,31.32L36.4,31.32z M37.97,28.14h-0.98c-0.3,0-0.53,0.09-0.66,0.41
				l-1.89,4.51h1.33c0,0,0.22-0.61,0.27-0.74c0.15,0,1.45,0,1.63,0c0.04,0.17,0.15,0.74,0.15,0.74h1.18L37.97,28.14L37.97,28.14
				L37.97,28.14z"/>
			<path id="path15" fill="#00579F" d="M27.76,28.14l-1.25,3.36l-0.14-0.68c-0.23-0.79-0.95-1.64-1.76-2.06l1.14,4.3h1.35l2-4.92
				L27.76,28.14L27.76,28.14L27.76,28.14z"/>
			<path id="path17" class="st11" fill="#FAA61A" d="M25.36,28.14h-2.05l-0.02,0.1c1.6,0.41,2.65,1.39,3.09,2.58l-0.44-2.26
				C25.86,28.24,25.63,28.15,25.36,28.14L25.36,28.14z"/>
		</g>
	</symbol>

	<symbol id="amex" viewBox="120 0 118 60">
		<title>American Express</title>
		<path fill="#F8F8F8" d="M128.85,0h100.3c4.89,0,8.85,4.03,8.85,9v42c0,4.97-3.96,9-8.85,9h-100.3c-4.89,0-8.85-4.03-8.85-9V9
		C120,4.03,123.96,0,128.85,0z"/>
		<path fill="#006FCF" d="M221.18,40.58h-5.51v2.24h5.3c2.24,0,3.67-1.43,3.67-3.47c0-2.04-1.22-3.06-3.26-3.06h-2.45
		c-0.61,0-1.02-0.41-1.02-1.02s0.41-1.02,1.02-1.02h4.69l1.02-2.24h-5.51c-2.24,0-3.67,1.43-3.67,3.26c0,2.04,1.22,3.06,3.26,3.06
		h2.45c0.61,0,1.02,0.41,1.02,1.02C222.41,40.17,222,40.58,221.18,40.58z M211.19,40.58h-5.51v2.24h5.3c2.24,0,3.67-1.43,3.67-3.47
		c0-2.04-1.22-3.06-3.26-3.06h-2.45c-0.61,0-1.02-0.41-1.02-1.02s0.41-1.02,1.02-1.02h4.69l1.02-2.24h-5.51
		c-2.24,0-3.67,1.43-3.67,3.26c0,2.04,1.22,3.06,3.26,3.06h2.45c0.61,0,1.02,0.41,1.02,1.02C212.42,40.17,211.8,40.58,211.19,40.58z
		 M204.05,34.06v-2.24h-8.57v10.81h8.57v-2.24h-6.12v-2.24h5.91v-2.24h-5.91v-2.04h6.12C204.05,33.85,204.05,34.06,204.05,34.06z
		 M190.19,34.06c1.02,0,1.43,0.61,1.43,1.22s-0.41,1.22-1.43,1.22h-3.06v-2.65C187.13,33.85,190.19,34.06,190.19,34.06z
		 M187.13,38.75h1.22l3.26,3.87h3.06L191,38.54c1.84-0.41,2.86-1.63,2.86-3.26c0-2.04-1.43-3.47-3.67-3.47h-5.71v10.81h2.45
		C186.92,42.62,187.13,38.75,187.13,38.75z M180.6,35.48c0,0.82-0.41,1.43-1.43,1.43h-3.26v-2.86h3.06
		C179.99,34.06,180.6,34.67,180.6,35.48z M173.46,31.81v10.81h2.45v-3.67h3.26c2.24,0,3.87-1.43,3.87-3.67
		c0-2.04-1.43-3.67-3.67-3.67C179.38,31.61,173.46,31.81,173.46,31.81z M169.79,42.62h3.06l-4.28-5.51l4.28-5.3h-3.06l-2.65,3.47
		l-2.65-3.47h-3.06l4.28,5.3l-4.28,5.3h3.06l2.65-3.47C167.14,38.95,169.79,42.62,169.79,42.62z M160.61,34.06v-2.24h-8.57v10.81
		h8.57v-2.24h-6.12v-2.24h5.91v-2.24h-5.91v-2.04h6.12V34.06z M209.09,21.38l4.28,6.53h3.06V17.1h-2.45v7.14l-0.61-1.02l-3.87-6.12
		h-3.26v10.81h2.45v-7.34C208.68,20.57,209.09,21.38,209.09,21.38z M198.48,21.18l0.82-2.24l0.82,2.24l1.02,2.45h-3.67
		C197.46,23.63,198.48,21.18,198.48,21.18z M202.77,27.91h2.65l-4.69-10.81h-3.26l-4.69,10.81h2.65l1.02-2.24h5.3
		C201.75,25.67,202.77,27.91,202.77,27.91z M191.35,27.91l1.02-2.24h-0.61c-1.84,0-2.86-1.22-2.86-3.06v-0.2
		c0-1.84,1.02-3.06,2.86-3.06h2.65V17.1h-2.86c-3.26,0-5.1,2.24-5.1,5.3v0.2C186.45,25.87,188.29,27.91,191.35,27.91z M182.17,27.91
		h2.45V17.3h-2.45V27.91z M176.87,19.34c1.02,0,1.43,0.61,1.43,1.22c0,0.61-0.41,1.22-1.43,1.22h-3.06v-2.65
		C173.81,19.14,176.87,19.34,176.87,19.34z M173.81,24.03h1.22l3.26,3.87h3.06l-3.67-4.08c1.84-0.41,2.86-1.63,2.86-3.26
		c0-2.04-1.43-3.47-3.67-3.47h-5.71v10.81h2.45C173.6,27.91,173.81,24.03,173.81,24.03z M169.32,19.34V17.1h-8.57v10.81h8.57v-2.24
		h-6.12v-2.24h5.91v-2.24h-5.91v-2.04h6.12V19.34z M150.76,27.91h2.24l3.06-8.77v8.77h2.45V17.1h-4.08l-2.45,7.34l-2.45-7.34h-4.08
		v10.81h2.45v-8.77C147.91,19.14,150.76,27.91,150.76,27.91z M137.51,21.18l0.82-2.24l0.82,2.24l1.02,2.45h-3.67
		C136.49,23.63,137.51,21.18,137.51,21.18z M141.79,27.91h2.65l-4.69-10.81h-3.06L132,27.91h2.65l1.02-2.24h5.3
		C140.97,25.67,141.79,27.91,141.79,27.91z"/>
	</symbol>

	<symbol id="paypal" viewBox="240 0 118 60">
		<title>Paypal</title>
		<path fill="#F8F8F8" d="M248.85,0h100.3c4.89,0,8.85,4.03,8.85,9v42c0,4.97-3.96,9-8.85,9h-100.3c-4.89,0-8.85-4.03-8.85-9V9
		C240,4.03,243.96,0,248.85,0z"/>
		<path fill="#253B80" d="M265.98,19.56h-6.84c-0.47,0-0.87,0.34-0.94,0.8l-2.77,17.54c-0.05,0.31,0.16,0.6,0.48,0.65
			c0.03,0,0.06,0.01,0.09,0.01h3.26c0.47,0,0.87-0.34,0.94-0.8l0.75-4.73c0.07-0.46,0.47-0.8,0.94-0.8h2.16c4.51,0,7.11-2.18,7.78-6.5
			c0.31-1.89,0.01-3.38-0.87-4.41C269.99,20.16,268.27,19.56,265.98,19.56z M266.77,25.96c-0.37,2.45-2.25,2.45-4.06,2.45h-1.03
			l0.72-4.58c0.04-0.28,0.28-0.48,0.56-0.48h0.47c1.23,0,2.4,0,3,0.7C266.79,24.48,266.9,25.1,266.77,25.96z M286.42,25.88h-3.28
			c-0.28,0-0.52,0.2-0.56,0.48l-0.14,0.92l-0.23-0.33c-0.71-1.03-2.29-1.37-3.87-1.37c-3.62,0-6.71,2.74-7.31,6.59
			c-0.31,1.92,0.13,3.75,1.22,5.03c1,1.18,2.43,1.67,4.12,1.67c2.92,0,4.53-1.88,4.53-1.88l-0.15,0.91c-0.05,0.31,0.16,0.6,0.47,0.65
			c0.03,0,0.06,0.01,0.09,0.01h2.95c0.47,0,0.87-0.34,0.94-0.8l1.77-11.21c0.05-0.31-0.16-0.6-0.47-0.65
			C286.48,25.89,286.45,25.88,286.42,25.88z M281.86,32.26c-0.32,1.87-1.8,3.13-3.7,3.13c-0.95,0-1.71-0.31-2.2-0.88
			c-0.48-0.57-0.67-1.39-0.51-2.3c0.3-1.86,1.81-3.15,3.67-3.15c0.93,0,1.69,0.31,2.18,0.89C281.8,30.53,282,31.35,281.86,32.26z
			 M303.86,25.88h-3.29c-0.32,0-0.61,0.16-0.79,0.42l-4.54,6.69l-1.92-6.43c-0.12-0.4-0.49-0.68-0.91-0.68h-3.23
			c-0.31,0-0.57,0.25-0.57,0.57c0,0.06,0.01,0.13,0.03,0.19l3.62,10.64l-3.41,4.81c-0.18,0.26-0.12,0.61,0.13,0.79
			c0.1,0.07,0.21,0.11,0.33,0.11h3.29c0.31,0,0.6-0.15,0.78-0.41l10.95-15.8c0.18-0.26,0.12-0.61-0.14-0.79
			C304.09,25.92,303.98,25.88,303.86,25.88L303.86,25.88z"/>
		<path fill="#179BD7" d="M314.76,19.56h-6.84c-0.47,0-0.87,0.34-0.94,0.8l-2.77,17.54c-0.05,0.31,0.16,0.6,0.47,0.65
			c0.03,0,0.06,0.01,0.09,0.01h3.51c0.33,0,0.61-0.24,0.66-0.56l0.79-4.97c0.07-0.46,0.47-0.8,0.94-0.8h2.16c4.51,0,7.1-2.18,7.78-6.5
			c0.31-1.89,0.01-3.38-0.87-4.41C318.77,20.16,317.05,19.56,314.76,19.56z M315.55,25.96c-0.37,2.45-2.25,2.45-4.06,2.45h-1.03
			l0.73-4.58c0.04-0.28,0.28-0.48,0.56-0.48h0.47c1.23,0,2.4,0,3,0.7C315.58,24.48,315.68,25.1,315.55,25.96z M335.2,25.88h-3.27
			c-0.28,0-0.52,0.2-0.56,0.48l-0.14,0.92l-0.23-0.33c-0.71-1.03-2.29-1.37-3.87-1.37c-3.62,0-6.71,2.74-7.31,6.59
			c-0.31,1.92,0.13,3.75,1.22,5.03c1,1.18,2.43,1.67,4.12,1.67c2.92,0,4.53-1.88,4.53-1.88l-0.15,0.91c-0.05,0.31,0.16,0.6,0.47,0.65
			c0.03,0,0.06,0.01,0.09,0.01h2.95c0.47,0,0.87-0.34,0.94-0.8l1.77-11.21c0.05-0.31-0.17-0.6-0.48-0.65
			C335.26,25.89,335.23,25.88,335.2,25.88z M330.64,32.26c-0.31,1.87-1.8,3.13-3.7,3.13c-0.95,0-1.71-0.31-2.2-0.88
			c-0.48-0.57-0.67-1.39-0.51-2.3c0.3-1.86,1.81-3.15,3.67-3.15c0.93,0,1.69,0.31,2.18,0.89C330.58,30.53,330.78,31.35,330.64,32.26z
			 M339.06,20.04l-2.81,17.86c-0.05,0.31,0.16,0.6,0.47,0.65c0.03,0,0.06,0.01,0.09,0.01h2.82c0.47,0,0.87-0.34,0.94-0.8l2.77-17.54
			c0.05-0.31-0.16-0.6-0.47-0.65c-0.03,0-0.06-0.01-0.09-0.01h-3.16C339.34,19.56,339.1,19.76,339.06,20.04z"/>
	</symbol>

	<symbol id="mastercard" viewBox="360 0 118 60">
		<title>Mastercard</title>
		<path fill="#F8F8F8" d="M368.85,0h100.3c4.89,0,8.85,4.03,8.85,9v42c0,4.97-3.96,9-8.85,9h-100.3c-4.89,0-8.85-4.03-8.85-9V9
		C360,4.03,363.96,0,368.85,0z"/>
		<path id="path2268" fill="#FF9900" d="M454,30.5c0,11.32-9.17,20.5-20.49,20.5c-11.32,0-20.5-9.17-20.5-20.49c0,0,0-0.01,0-0.01
		c0-11.32,9.17-20.5,20.49-20.5c11.32,0,20.5,9.17,20.5,20.49C454,30.5,454,30.5,454,30.5z"/>
		<path id="path1350" fill="#CC0000" d="M405.88,10.01c-11.25,0.07-20.36,9.23-20.36,20.5c0,11.31,9.18,20.5,20.5,20.5
			c5.31,0,10.15-2.02,13.79-5.34c0,0,0,0,0,0h0c0.75-0.68,1.44-1.41,2.08-2.19h-4.2c-0.56-0.68-1.07-1.38-1.53-2.11h7.24
			c0.44-0.7,0.84-1.44,1.19-2.19h-9.63c-0.33-0.7-0.61-1.42-0.86-2.15h11.35c0.68-2.04,1.05-4.23,1.05-6.5
			c0-1.51-0.16-2.98-0.47-4.39H413.5c0.16-0.73,0.35-1.45,0.58-2.15h11.35c-0.25-0.75-0.55-1.48-0.88-2.19h-9.59
			c0.35-0.74,0.74-1.46,1.18-2.15h7.24c-0.48-0.77-1.01-1.5-1.59-2.19h-4.04c0.62-0.73,1.31-1.43,2.06-2.07
			c-3.64-3.32-8.48-5.34-13.8-5.34C405.96,10.01,405.92,10.01,405.88,10.01z"/>
		<path id="use9412" fill="#FCB340" d="M451.94,41.22c0.11,0,0.22,0.03,0.33,0.09c0.11,0.06,0.19,0.14,0.25,0.25
			c0.06,0.11,0.09,0.22,0.09,0.33c0,0.11-0.03,0.22-0.09,0.33c-0.06,0.11-0.14,0.19-0.25,0.25c-0.1,0.06-0.21,0.09-0.33,0.09
			c-0.11,0-0.22-0.03-0.33-0.09c-0.11-0.06-0.19-0.14-0.25-0.25c-0.06-0.11-0.09-0.22-0.09-0.33c0-0.12,0.03-0.23,0.09-0.33
			c0.06-0.11,0.14-0.19,0.25-0.25C451.72,41.25,451.83,41.22,451.94,41.22 M451.94,41.33c-0.09,0-0.18,0.02-0.27,0.07
			c-0.09,0.05-0.16,0.12-0.21,0.21c-0.05,0.09-0.08,0.18-0.08,0.28c0,0.1,0.02,0.19,0.07,0.27c0.05,0.09,0.12,0.16,0.21,0.2
			c0.09,0.05,0.18,0.07,0.27,0.07c0.1,0,0.19-0.02,0.28-0.07c0.09-0.05,0.16-0.12,0.2-0.2c0.05-0.09,0.07-0.18,0.07-0.27
			c0-0.1-0.02-0.19-0.07-0.28c-0.05-0.09-0.12-0.16-0.21-0.21C452.13,41.35,452.04,41.33,451.94,41.33 M451.65,42.25v-0.71h0.25
			c0.08,0,0.14,0.01,0.18,0.02c0.04,0.01,0.07,0.04,0.09,0.07c0.02,0.03,0.03,0.07,0.03,0.1c0,0.05-0.02,0.1-0.06,0.14
			c-0.04,0.04-0.09,0.06-0.15,0.07c0.03,0.01,0.05,0.02,0.06,0.04c0.03,0.03,0.06,0.07,0.11,0.14l0.09,0.14h-0.14l-0.06-0.11
			c-0.05-0.09-0.09-0.14-0.12-0.17c-0.02-0.02-0.05-0.02-0.09-0.02h-0.07v0.3L451.65,42.25 M451.77,41.85h0.14
			c0.07,0,0.11-0.01,0.14-0.03c0.02-0.02,0.04-0.05,0.04-0.08c0-0.02-0.01-0.04-0.02-0.06c-0.01-0.02-0.03-0.03-0.05-0.04
			c-0.02-0.01-0.06-0.01-0.11-0.01h-0.13L451.77,41.85"/>
		<g id="g13802" transform="translate(-13.74405,15.9939)">
			<path id="path13804" fill="#000066" d="M426.55,20.39l0.27-1.86c-0.15,0-0.37,0.06-0.56,0.06c-0.76,0-0.85-0.41-0.79-0.7l0.75-3.73
				h1.15l0.24-2.11h-1.09l0.22-1.28h-2.28c-0.05,0.05-1.29,7.18-1.29,8.04c0,1.29,0.72,1.86,1.74,1.85
				C425.71,20.67,426.34,20.45,426.55,20.39z"/>
			<path id="path13806" fill="#000066" d="M427.24,16.85c0,3.08,2.04,3.82,3.77,3.82c1.6,0,2.44-0.37,2.44-0.37l0.38-2.11
				c0,0-1.35,0.55-2.45,0.55c-2.34,0-1.93-1.75-1.93-1.75l4.5,0.01c0,0,0.29-1.41,0.29-1.99c0-1.44-0.78-3.2-3.18-3.2
				C428.87,11.82,427.24,14.18,427.24,16.85z M431.07,13.77c1.23,0,1,1.38,1,1.5h-2.42C429.65,15.12,429.88,13.77,431.07,13.77z"/>
			<path id="path13808" fill="#000066" d="M444.89,20.39l0.39-2.38c0,0-1.07,0.54-1.81,0.54c-1.55,0-2.17-1.18-2.17-2.45
				c0-2.58,1.33-3.99,2.81-3.99c1.11,0,2,0.62,2,0.62l0.36-2.31c0,0-1.05-0.76-2.19-0.77c-3.41-0.01-5.36,2.36-5.36,6.47
				c0,2.72,1.45,4.57,4.05,4.57C443.72,20.69,444.89,20.39,444.89,20.39z"/>
			<path id="path13810" fill="#000066" d="M414.55,11.85c-1.5,0-2.64,0.48-2.64,0.48l-0.32,1.88c0,0,0.95-0.38,2.38-0.38
				c0.81,0,1.41,0.09,1.41,0.75c0,0.4-0.07,0.55-0.07,0.55s-0.64-0.05-0.94-0.05c-2.13,0-3.87,0.81-3.87,3.23
				c0,1.91,1.3,2.35,2.11,2.35c1.54,0,2.15-0.97,2.18-0.98l-0.02,0.81c0,0,1.92,0,1.92,0l0.86-6.01
				C417.55,11.93,415.32,11.85,414.55,11.85z M414.88,16.73c0.04,0.37-0.09,2.1-1.41,2.1c-0.68,0-0.85-0.52-0.85-0.82
				c0-0.6,0.32-1.31,1.92-1.31C414.92,16.69,414.82,16.72,414.88,16.73z"/>
			<path id="path13812" fill="#000066" d="M419.59,20.62c0.49,0,3.3,0.13,3.3-2.77c0-2.71-2.6-2.18-2.6-3.27c0-0.54,0.42-0.71,1.2-0.71
				c0.31,0,1.49,0.1,1.49,0.1l0.28-1.93c0,0-0.77-0.17-2.01-0.17c-1.61,0-3.25,0.64-3.25,2.85c0,2.5,2.73,2.25,2.73,3.3
				c0,0.7-0.76,0.76-1.35,0.76c-1.02,0-1.93-0.35-1.94-0.33l-0.29,1.91C417.19,20.36,417.76,20.62,419.59,20.62z"/>
			<path id="path13814" fill="#000066" d="M462.89,10.1l-0.39,2.94c0,0-0.82-1.13-2.11-1.13c-2.42,0-3.67,2.41-3.67,5.18
				c0,1.79,0.89,3.54,2.71,3.54c1.31,0,2.03-0.91,2.03-0.91l-0.1,0.78h2.12l1.67-10.38L462.89,10.1z M461.96,15.82
				c0,1.15-0.57,2.69-1.75,2.69c-0.79,0-1.15-0.66-1.15-1.69c0-1.69,0.76-2.81,1.72-2.81C461.55,14.01,461.96,14.54,461.96,15.82z"
				/>
			<path id="path13816" fill="#000066" d="M402.73,20.5l1.33-7.84l0.2,7.84h1.5l2.8-7.84l-1.24,7.84h2.23l1.72-10.39l-3.55-0.03
				l-2.11,6.36l-0.06-6.34h-3.25l-1.75,10.39L402.73,20.5L402.73,20.5z"/>
			<path id="path13818" fill="#000066" d="M436.36,20.52c0.64-3.61,0.86-6.47,2.71-5.87c0.27-1.4,0.9-2.61,1.19-3.21
				c0,0-0.09-0.14-0.66-0.14c-0.98,0-2.28,1.98-2.28,1.98l0.2-1.23h-2.03l-1.36,8.46L436.36,20.52L436.36,20.52z"/>
			<g id="use14699" transform="translate(845.3001,0)">
				<path id="path13810_1_" fill="#000066" d="M-395.84,11.85c-1.5,0-2.64,0.48-2.64,0.48l-0.32,1.88c0,0,0.95-0.38,2.38-0.38
					c0.81,0,1.41,0.09,1.41,0.75c0,0.4-0.07,0.55-0.07,0.55s-0.64-0.05-0.94-0.05c-2.13,0-3.87,0.81-3.87,3.23
					c0,1.91,1.3,2.35,2.11,2.35c1.54,0,2.15-0.97,2.18-0.98l-0.02,0.81h1.92l0.86-6.01C-392.84,11.93-395.07,11.85-395.84,11.85z
					 M-395.51,16.73c0.04,0.37-0.1,2.1-1.41,2.1c-0.68,0-0.85-0.52-0.85-0.82c0-0.6,0.32-1.31,1.92-1.31
					C-395.47,16.69-395.57,16.72-395.51,16.73z"/>
			</g>
			<path id="use14701" fill="#000066" d="M454.67,20.52c0.35-2.66,0.99-6.39,2.71-5.87c0.27-1.4,0.01-1.39-0.56-1.39
				c-0.98,0-1.19,0.04-1.19,0.04l0.2-1.23h-2.03l-1.36,8.46L454.67,20.52L454.67,20.52z"/>
		</g>
		<path id="path4157" fill="#FFFFFF" d="M413.38,35.72l0.27-1.86c-0.15,0-0.37,0.06-0.56,0.06c-0.76,0-0.84-0.4-0.8-0.7l0.61-3.79
			h1.15l0.28-2.05h-1.09l0.22-1.28h-2.18c-0.05,0.05-1.29,7.18-1.29,8.04c0,1.29,0.72,1.86,1.74,1.85
			C412.54,36,413.16,35.78,413.38,35.72z"/>
		<path id="path4155" fill="#FFFFFF" d="M414.07,32.18c0,3.08,2.04,3.82,3.77,3.82c1.6,0,2.31-0.36,2.31-0.36l0.38-2.1
			c0,0-1.22,0.54-2.32,0.54c-2.34,0-1.93-1.75-1.93-1.75h4.44c0,0,0.29-1.41,0.29-1.99c0-1.44-0.72-3.19-3.11-3.19
			C415.69,27.15,414.07,29.51,414.07,32.18z M417.9,29.1c1.23,0,1,1.38,1,1.5h-2.42C416.48,30.45,416.71,29.1,417.9,29.1z"/>
		<path id="path4151" fill="#FFFFFF" d="M431.72,35.72l0.39-2.38c0,0-1.07,0.54-1.81,0.54c-1.55,0-2.17-1.18-2.17-2.45
			c0-2.58,1.33-3.99,2.81-3.99c1.11,0,2,0.62,2,0.62l0.36-2.31c0,0-1.32-0.54-2.46-0.54c-2.52,0-4.97,2.19-4.97,6.29
			c0,2.72,1.32,4.52,3.93,4.52C430.54,36.02,431.72,35.72,431.72,35.72z"/>
		<path id="path4149" fill="#FFFFFF" d="M401.38,27.18c-1.5,0-2.64,0.48-2.64,0.48l-0.32,1.88c0,0,0.95-0.38,2.38-0.38
			c0.81,0,1.41,0.09,1.41,0.75c0,0.4-0.07,0.55-0.07,0.55s-0.64-0.05-0.94-0.05c-1.89,0-3.87,0.81-3.87,3.23
			c0,1.91,1.3,2.35,2.11,2.35c1.54,0,2.2-1,2.24-1l-0.07,0.83h1.92l0.86-6.01C404.37,27.26,402.15,27.18,401.38,27.18z
			 M401.84,32.07c0.04,0.37-0.23,2.09-1.54,2.09c-0.68,0-0.85-0.52-0.85-0.82c0-0.6,0.32-1.31,1.92-1.31
			C401.74,32.02,401.78,32.06,401.84,32.07z"/>
		<path id="path4145" fill="#FFFFFF" d="M406.42,35.95c0.49,0,3.3,0.12,3.3-2.77c0-2.71-2.6-2.18-2.6-3.26c0-0.54,0.42-0.71,1.2-0.71
			c0.31,0,1.49,0.1,1.49,0.1l0.28-1.93c0,0-0.77-0.17-2.01-0.17c-1.61,0-3.25,0.64-3.25,2.85c0,2.5,2.73,2.25,2.73,3.3
			c0,0.7-0.76,0.76-1.35,0.76c-1.02,0-1.93-0.35-1.94-0.33l-0.29,1.91C404.02,35.7,404.58,35.95,406.42,35.95z"/>
		<path id="path4139" fill="#FFFFFF" d="M449.79,25.45l-0.47,2.92c0,0-0.82-1.13-2.11-1.13c-2,0-3.67,2.41-3.67,5.18
			c0,1.79,0.89,3.54,2.71,3.54c1.31,0,2.03-0.91,2.03-0.91l-0.1,0.78h2.12l1.67-10.38L449.79,25.45z M448.78,31.15
			c0,1.15-0.57,2.69-1.75,2.69c-0.79,0-1.15-0.66-1.15-1.69c0-1.69,0.76-2.81,1.72-2.81C448.38,29.34,448.78,29.88,448.78,31.15z"
			/>
		<path id="path4133" fill="#FFFFFF" d="M389.56,35.84l1.33-7.84l0.2,7.84h1.5l2.8-7.84l-1.24,7.84h2.23l1.72-10.39h-3.45l-2.15,6.38
			l-0.11-6.38h-3.18l-1.75,10.39C387.45,35.84,389.56,35.84,389.56,35.84z"/>
		<path id="path4131" fill="#FFFFFF" d="M423.18,35.85c0.64-3.61,0.75-6.55,2.27-6.01c0.27-1.4,0.52-1.94,0.81-2.53
			c0,0-0.14-0.03-0.42-0.03c-0.98,0-1.7,1.34-1.7,1.34l0.19-1.23h-2.03l-1.36,8.46H423.18z"/>
		<g id="use8523" transform="translate(847.0062,0)">
			<path id="path4149_1_" fill="#FFFFFF" d="M-410.25,27.18c-1.5,0-2.64,0.48-2.64,0.48l-0.32,1.88c0,0,0.95-0.38,2.38-0.38
				c0.81,0,1.41,0.09,1.41,0.75c0,0.4-0.07,0.55-0.07,0.55s-0.64-0.05-0.94-0.05c-1.89,0-3.87,0.81-3.87,3.23
				c0,1.91,1.3,2.35,2.11,2.35c1.54,0,2.2-1,2.24-1l-0.07,0.83c0,0,1.92,0,1.92,0l0.86-6.01
				C-407.26,27.26-409.48,27.18-410.25,27.18z M-409.79,32.07c0.04,0.37-0.23,2.09-1.54,2.09c-0.68,0-0.85-0.52-0.85-0.82
				c0-0.6,0.32-1.31,1.92-1.31C-409.89,32.02-409.85,32.06-409.79,32.07z"/>
		</g>
		<g id="use8525" transform="translate(442.2857,0)">
			<path id="path4131_1_" fill="#FFFFFF" d="M-0.78,35.85c0.64-3.61,0.75-6.55,2.27-6.01c0.27-1.4,0.52-1.94,0.81-2.53
				c0,0-0.14-0.03-0.42-0.03c-0.98,0-1.7,1.34-1.7,1.34l0.19-1.23h-2.03l-1.36,8.46H-0.78z"/>
		</g>
		<path id="text9407" fill="#FFFFFF" d="M451.93,34.54c0.11,0,0.22,0.03,0.33,0.09c0.11,0.06,0.19,0.14,0.25,0.24
			c0.06,0.11,0.09,0.22,0.09,0.33c0,0.11-0.03,0.22-0.09,0.33c-0.06,0.11-0.14,0.19-0.24,0.25c-0.11,0.06-0.22,0.09-0.33,0.09
			c-0.12,0-0.23-0.03-0.33-0.09c-0.11-0.06-0.19-0.14-0.24-0.25c-0.06-0.11-0.09-0.22-0.09-0.33c0-0.12,0.03-0.23,0.09-0.33
			c0.06-0.11,0.14-0.19,0.25-0.24C451.71,34.57,451.82,34.54,451.93,34.54 M451.93,34.65c-0.09,0-0.18,0.02-0.27,0.07
			c-0.09,0.05-0.16,0.12-0.21,0.2c-0.05,0.09-0.07,0.18-0.07,0.28s0.02,0.19,0.07,0.27c0.05,0.09,0.12,0.16,0.21,0.2
			c0.09,0.05,0.18,0.07,0.27,0.07c0.1,0,0.19-0.02,0.27-0.07c0.09-0.05,0.16-0.12,0.2-0.2c0.05-0.09,0.07-0.18,0.07-0.27
			s-0.02-0.19-0.07-0.28c-0.05-0.09-0.12-0.16-0.21-0.2C452.12,34.68,452.03,34.65,451.93,34.65 M451.64,35.57v-0.71h0.25
			c0.08,0,0.14,0.01,0.18,0.02c0.04,0.01,0.07,0.04,0.09,0.07c0.02,0.03,0.03,0.07,0.03,0.1c0,0.05-0.02,0.1-0.06,0.14
			c-0.04,0.04-0.09,0.06-0.15,0.06c0.02,0.01,0.04,0.02,0.06,0.04c0.03,0.03,0.06,0.08,0.11,0.14l0.09,0.14h-0.14l-0.06-0.11
			c-0.05-0.09-0.09-0.14-0.12-0.17c-0.02-0.02-0.05-0.02-0.09-0.02h-0.07v0.3L451.64,35.57 M451.76,35.17h0.14
			c0.07,0,0.11-0.01,0.14-0.03c0.02-0.02,0.04-0.05,0.04-0.08c0-0.02-0.01-0.04-0.02-0.06c-0.01-0.02-0.03-0.03-0.05-0.04
			c-0.02-0.01-0.06-0.01-0.12-0.01h-0.13L451.76,35.17"/>
	</symbol>

	<symbol id="klarna" viewBox="480 0 118 60">
		<title>Klarna</title>
		<path fill="#FFB3C7" d="M488.85,0h100.3c4.89,0,8.85,4.03,8.85,9v42c0,4.97-3.96,9-8.85,9h-100.3c-4.89,0-8.85-4.03-8.85-9V9
		C480,4.03,483.96,0,488.85,0z"/>	
		<path d="M575.08,25.42v0.86c-3.24-2.21-7.66-1.37-9.86,1.88c-2.21,3.24-1.37,7.66,1.88,9.86c2.41,1.64,5.58,1.64,7.99,0v0.86h4
			V25.42H575.08z M571.41,35.61c-1.91-0.1-3.38-1.73-3.29-3.65c0.1-1.91,1.73-3.38,3.65-3.29c1.85,0.1,3.29,1.62,3.29,3.47
			C575.01,34.11,573.37,35.66,571.41,35.61z"/>
		<path d="M512.68,19.41h-4.37c0,3.55-1.67,6.88-4.52,9l-1.73,1.32l6.71,9.15h5.52l-6.18-8.42C511.05,27.53,512.7,23.55,512.68,19.41z
			"/>
		<rect x="497.05" y="19.41" width="4.48" height="19.47"/>
		<rect x="515.59" y="19.42" width="4.22" height="19.46"/>
		<path d="M556.82,25.05c-1.61-0.1-3.16,0.61-4.15,1.88v-1.51h-4v13.46h4.06V31.8c-0.11-1.57,1.07-2.93,2.64-3.05
			c0.12-0.01,0.24-0.01,0.36,0c1.77,0,2.79,1.06,2.79,3v7.11h4v-8.54C562.56,27.18,560.06,25.05,556.82,25.05z"/>
		<path d="M532.56,25.42v0.86c-3.24-2.21-7.66-1.37-9.86,1.88c-2.21,3.24-1.37,7.66,1.88,9.86c2.41,1.64,5.58,1.64,7.99,0v0.86h4
			V25.42H532.56z M528.89,35.61c-1.91-0.1-3.38-1.74-3.27-3.65c0.1-1.91,1.74-3.38,3.65-3.27c1.84,0.1,3.28,1.63,3.28,3.47
			C532.5,34.11,530.86,35.66,528.89,35.61C528.89,35.61,528.89,35.61,528.89,35.61z"/>
		<path d="M542.82,27.17v-1.75h-4.12v13.46h4.13v-6.29c0-2.12,2.3-3.26,3.9-3.26l0,0v-3.91C545.23,25.38,543.8,26.03,542.82,27.17z"/>
		<path d="M583.39,34.1c-1.4,0.02-2.51,1.17-2.49,2.57s1.17,2.51,2.57,2.49c1.37-0.02,2.47-1.12,2.49-2.49
			c0.02-1.4-1.09-2.55-2.49-2.57C583.44,34.1,583.42,34.1,583.39,34.1z"/>
	</symbol>
</svg>
