<svg viewBox="0 0 234 134" xmlns="http://www.w3.org/2000/svg"><g transform="translate(-1 -1)"><path d="m187 135h-10c-8.86-3.19-15.7-8.39-18.42-18a4.13 4.13 0 0 0 -3.18-2.17q-36.41-.18-72.82 0c-1.13 0-3 1.12-3.27 2.07-2.67 9.61-9.51 14.82-18.31 18.1h-10c-7.51-2.8-14.42-6.77-16.88-14.78-1.65-5.38-4.54-6.41-9.3-5.85-11.13 1.29-19.32-2.79-23.82-13.37v-85c2.78-7.22 7.66-12.34 15-15h164c10.4 3.5 16.42 11.06 20.12 21.07a116.14 116.14 0 0 0 7.23 15.85 66.3 66.3 0 0 0 8.65 12.5c7.18 7.93 16 14.58 19 25.58v25c-4.51 10.57-12.7 14.59-23.84 13.41a6.84 6.84 0 0 0 -3 .06c-1.09.4-2.68 1.1-2.9 2-2.46 9.77-9.34 15.12-18.26 18.53zm-155.37-28.17a21.18 21.18 0 0 0 1-1.92c3.88-11.84 12.14-18.59 23-18.79 10.63-.2 19.37 6.16 23.34 17.59 1.11 3.19 3.08 2.9 5.39 2.9 22.82 0 45.64-.08 68.46.08 3.67 0 5.43-.77 6.66-4.63 3-9.31 11.94-15.53 21.55-15.93 9.37-.38 19.23 4.87 22.25 13.92 2.17 6.5 5.7 7.51 11.26 6.8 1-.13 2 0 3-.08 5.69-.6 9.5-4.39 9.79-10.11.23-4.49 0-9 .12-13.49.22-6.91-1.9-12.93-7.21-17.36-12.34-10.3-20.61-23.26-26.06-38.22-.79-2.18-2-4.2-2.86-6.37-3.42-8.89-9.85-12.62-19.35-12.59-49.64.16-99.28.06-148.91.08-10.32 0-14.44 4.16-14.5 14.63-.06 11.49 0 23 0 34.48 0 12.49-.12 25 .07 37.47.11 7.5 4.16 11.36 11.52 11.53 3.77.08 7.6.01 11.48.01zm166.47 4.17c.06-9.78-6.86-17-16.24-17a15.94 15.94 0 0 0 -16.12 16c-.05 10.07 6.46 17.14 15.89 17.25a16 16 0 0 0 16.47-16.25zm-126-.3c0-9.56-6.75-16.65-15.93-16.72-9.4-.08-16.44 7.14-16.4 16.85 0 9.41 7 16.48 16.28 16.45s16.06-7.07 16.06-16.63z"/><path d="m108 62.07q-25.73 0-51.44 0c-3 0-6.17.09-6-4 .14-3.67 3.24-3.61 6-3.61h103.44c2.81 0 5.81.19 5.8 3.82s-2.93 3.79-5.78 3.78q-26.02-.06-52.02.01z"/></g></svg>