<svg enable-background="new 0 0 207 210" viewBox="0 0 207 210" xmlns="http://www.w3.org/2000/svg"><path d="m186 103.2c-5.4 7.1-10.8 14.2-16.3 21.2-4.5 5.6-9.3 11.1-13.9 16.7-6.2 7.6-14.3 11-23.9 11-13.7.1-27.3-.2-41 .2-2.9.1-5.8 2-8.5 3.6-1 .6-1.2 2.6-1.8 4-1.3 3-1.9 6.5-3.9 8.8-4.8 5.5-10.2 10.5-15.4 15.8h-4c-.2-.5-.5-.9-.8-1.3-12.4-12.4-24.7-24.9-37-37.3v-3.2c5.2-5.2 10.3-10.6 15.7-15.5 2-1.8 5.1-2.5 7.6-3.8 1.1-.6 2.5-1.1 3-2 9.7-16 30.9-22 48.4-16.6 2.5.8 5.2 1.1 7.8 1.2 9.8.1 19.6.1 29.3 0 4.6 0 8.8.9 11.7 3.9 6-5.6 12-11.1 17.7-16.8 9.6-9.6 19-8.3 25.1 3.8v6.3zm-109.6 48.2c4.9-6.4 12.1-6.6 19.7-6.5 11.9.2 23.9.1 35.8 0 6.8 0 12.9-2.1 17.5-7.5 9.1-10.8 18.1-21.5 27.1-32.4 3-3.6 3.1-7.1.4-9.6s-6.3-2-9.5 1.4c-5.9 6-11.8 12.1-17.6 18.2-1.4 1.5-2.3 3.4-2.6 5.4-1.2 6.7-5.1 11.4-11.7 11.8-9.2.6-18.5.3-27.7.3-2.2 0-3.9-1.2-3.7-3.8.1-2.6 1.9-3.3 4.1-3.3h15.7c3.6 0 7.2.1 10.8-.3 3.4-.4 5.3-2.7 5.2-6.1-.1-3.2-1.9-5.2-5.1-5.8-1.3-.2-2.7-.3-4-.3-10.3 0-20.6 0-31 0-1.7.1-3.5-.1-5.1-.6-6.1-2.4-12.8-3.1-19.3-2-10.6 1.6-18.8 6.9-23.8 15.9zm-16.1 24.8c4-4.3 7.8-8.6 11.8-12.8 1.5-1.6 1.8-3.2.1-4.9-8.9-8.9-17.8-17.9-26.8-26.6-.8-.8-3.4-1.2-4.1-.5-4.5 4.1-8.7 8.5-13.5 13.3 1.6 1.3 2.8 2.1 3.8 3.1 9.3 9.1 18.5 18.2 28.7 28.4z"/><path d="m131.3 15.5c4.2 1.1 8.6 1.8 12.7 3.3 6 2.1 7.2 4.2 7.2 10.4v55.8c0 5.9-1.3 8-7.1 10.1-10 3.7-20.5 4-30.9 2.7-4.9-.7-9.7-2-14.3-3.7-3.6-1.3-5-4.3-4.9-8.3.2-19.3.2-38.6 0-57.8 0-4.5 1.8-7.3 5.7-8.6 4.8-1.6 9.7-2.6 14.6-3.9zm14.5 10.5c-8.8-7-39-6.9-45.8 0 7.8 6.7 36.2 6.8 45.8 0zm-.3 37.9c-14.9 4.7-30.9 4.7-45.8 0-1.3 3.1.3 4.7 2.9 5.5 13.1 4.3 27.2 4.3 40.2 0 2.8-.9 3.9-2.7 2.7-5.5zm-45.7 10.3c-1.4 3.1.2 4.7 2.8 5.5 13.1 4.3 27.2 4.3 40.2 0 2.7-.9 4-2.5 2.8-5.5-15 4.7-30.9 4.7-45.8 0zm45.8-20.7c-14.9 4.8-30.9 4.8-45.8 0-1.2 3 .2 4.7 2.8 5.5 13 4.3 27.1 4.4 40.1.1 2.7-.9 4-2.5 2.9-5.6zm-45.7 31.1-1.2 1.2c1.2 1.4 2 3.6 3.5 4 13.2 4.7 27.6 4.7 40.9.2 2.6-.9 3.6-2.6 2.5-5.4-14.9 4.7-30.9 4.7-45.7 0zm45.6-41.5c-14.9 4.8-31 4.8-45.9 0-1 3 .1 4.6 2.7 5.5 13.1 4.4 27.4 4.5 40.5.1 2.9-1 3.8-2.8 2.7-5.6zm-45.8-10.4c-1.3 3.2.3 4.8 3.1 5.6 12.9 4.2 26.9 4.2 39.8 0 2.8-.9 4.2-2.6 2.9-5.6-14.9 4.8-30.9 4.8-45.8 0z"/></svg>