<svg enable-background="new 0 0 160.6 126.2" viewBox="0 0 160.6 126.2" xmlns="http://www.w3.org/2000/svg"><g fill="none" stroke="#000" stroke-miterlimit="10" stroke-width="7"><path d="m74.1 64.3-20.7-21.8"/><path d="m86.8 51.4-16.9-16.9"/><path d="m101.6 41.9-.5-.5-14.3-14.2"/><path d="m54.4 37.9c.9-2.8 3.2-5 6.1-5.7 2.5-.6 4.8-.7 7.2.6 1.6 1 3 2.2 4.2 3.6-3.1-3.5-1.3-8.6 2.7-10.7 1.4-.8 3-1.4 4.6-1.6 3.4-.3 7 2 9.2 4.3-1.1-1.2-.7-3.6-.3-5 .5-1.7 1.4-3.2 2.8-4.3 3.1-2.4 7.4-2.4 10.4 0l15.9 16 15.8 15.8c5.4 5.4 11.3 10.7 10.7 19.1-.5 6.6-4.5 11.2-8.9 15.6l-18.2 18.4c-2.7 2.7-5.3 5.4-7.9 8.2-1.1 1.1-2.4 2-3.8 2.6-3.2 1.4-7 1.6-10.4 1.2-6-.6-11.7-2.8-17.5-4.3l-29.5-7.3c-4.6-1.1-9.7-2.7-11.9-6.9-1.2-2.3-1.2-5.1-.1-7.4 2.1-4.3 7.2-5.1 11.5-5.7 4-.6 8.1-.8 12.1-1.4 1.7-.3 4.6-.3 6.1-1.2 1.4-.8.8-1 0-2-8.4-9.4-17.9-17.8-26.7-26.6l-20.6-20.6c-.8-1.8-1.2-3.8-1.1-5.7.5-5.2 6.1-7.3 10.8-7 2.2.2 4.3 1.2 5.8 2.9l12.5 12.5 7.2 7.2c1.2 1.3 2.5 2.6 3.8 3.7-2.4-2.1-3.4-5.3-2.5-8.3z"/></g></svg>