<svg viewBox="0 0 184.28 149.96" xmlns="http://www.w3.org/2000/svg"><g stroke="#070707" stroke-miterlimit="10"><g fill="none"><path d="m3.43 59.81c-.6 1.28.63 2.61 1.73 3.49q8.36 6.6 16.84 13.14" stroke-width="5"/><path d="m38.69 28.08c14.75-6.41 31.62-4.51 47.58-2.49" stroke-width="4"/><path d="m47.76 5.48c13.59-2.48 27.61-3.48 41.24-1.11s26.84 8.45 36.34 18.49c6.09 6.44 10.47 14.28 14.57 22.14 1 1.82 1.92 3.79 1.65 5.83-.59 4.49-6.25 6-10.77 6.45l-24.43 2.47a83.57 83.57 0 0 0 -3.27 22.61c0 5.33 1.64 8.34 6.46 10.66l18.59 8.9c1.85.88 4 1.78 5.86 1 3-1.21 3.31-5.58 6-7.38 5.12-3.45 7.09 4.17 9.35 6.77.48.55 6 6.19 5.79 6.39-3 2.93-4.36 4.6-4 8.74.69 7.91-6.51 14.7-6.55 22.64a8.7 8.7 0 0 0 -3.49 5.13 270.42 270.42 0 0 0 -38.55-19.57c-29.61-12.16-61.1-19-92.4-25.67-2.35-3.95.27-8.17.5-12.23.26-4.49-1.72-8.84-3.37-12.9q-2.07-5.07-3.74-10.3a6.81 6.81 0 0 1 -.46-3.2 8.16 8.16 0 0 1 1.45-2.9c3-4.7 4.18-10.23 5.67-15.54s3.89-9.87 6.49-14.74c3.58-6.72 9-12.86 11.1-20.23 0 0 7.91-.37 8.94-.56 3.66-.65 7.35-1.22 11.03-1.89z" stroke-width="6"/></g><path d="m128.32 11.91a210.22 210.22 0 0 0 41 3.28c3.6-.07 7.54-.12 10.34 2.14a92.94 92.94 0 0 1 -10.77 8.85c-9.08 6-19.95 8.7-30.57 11.24a10.16 10.16 0 0 1 -5.12.32 12.75 12.75 0 0 0 -2-.6 5 5 0 0 0 -1.8.18 24 24 0 0 0 -7.6 3.31c-3 2-5.62 4.69-9 6.08s-7.36 1.31-11.12 1.15l-16.93-.71c-.73-1.18 0-2.69.72-3.88q3.9-6.36 8.35-12.36a5.89 5.89 0 0 1 1.77-1.78 6.27 6.27 0 0 1 2.62-.54 102.14 102.14 0 0 0 21.54-3.59c.23-.81-.67-1.46-1.44-1.83l-14-6.76q8.24-.62 16.44-1.47c-6.18-5.43-13.82-3.17-20.58-6.94 1.78 1 6.38.42 8.48.62 2.28.21 4.49.67 6.75 1 4.32.6 8.6 1.51 12.92 2.29z" fill="#fdffff" stroke-width="6"/><g fill="none"><path d="m27.38 8.33c20.51 3.67 41.2 7.33 60.47 15.24" stroke-width="6"/><path d="m140.21 48-40.49 7.09c-4.63.82-9.35 1.67-13.45 3.95 2.43.08 5.36.46 6.38 2.69a6.54 6.54 0 0 1 .44 2.49l.75 16.29a8.06 8.06 0 0 1 -.58 4.23c-.68 1.27-2.39 2.09-3.61 1.33 2.87 6.56 9.76 10.22 16.16 13.39l16.15 8c4.47 2.22 9.11 4.47 14.1 4.7s10.44-2.14 12.28-6.8" stroke-width="4"/><path d="m134.55 118.49a1.45 1.45 0 0 1 .47.42 1.59 1.59 0 0 1 .16.69c.13 2.18.19 4.39.53 6.55.25 1.58.08 4.37.6 5.79-1.64-4.51-5.45-7.49-8-11.41-1.66-2.55-4.13-5.34-5.15-8.18 2.53-1.42 9.17 4.65 11.39 6.14z" stroke-width="4"/></g></g></svg>