<?xml version="1.0" encoding="utf-8"?>
<!-- Generator: Adobe Illustrator 25.1.0, SVG Export Plug-In . SVG Version: 6.00 Build 0)  -->
<svg version="1.1" id="Layer_1" xmlns="http://www.w3.org/2000/svg" xmlns:xlink="http://www.w3.org/1999/xlink" x="0px" y="0px"
	 viewBox="0 0 135.9 135.9" style="enable-background:new 0 0 135.9 135.9;" xml:space="preserve">
<style type="text/css">
	.st0{fill:#35688C;}
	.st1{fill:#7EB728;}
	.st2{fill:#DD0B15;}
	.st3{fill:#010202;}
	.st4{fill:#FFFFFF;}
	.st5{fill:#253D7F;}
	.st6{fill:#159AD7;}
	.st7{fill:#243064;}
	.st8{fill:#2A2D6B;}
	.st9{opacity:0;}
	.st10{fill:#EB6126;}
	.st11{fill:#E52428;}
	.st12{fill:#F59E21;}
	.st13{fill:#2B6DB5;}
	.st14{fill:#F5B1C6;}
	.st15{fill:#0A0C0B;}
</style>
<path class="st0" d="M68,0C30.4,0,0,30.4,0,68s30.4,68,68,68c37.5,0,68-30.4,68-68S105.5,0,68,0z M68,113.9c-5.5,0-9.9-4.4-9.9-9.9
	c0-5.5,4.4-9.9,9.9-9.9c5.5,0,9.9,4.4,9.9,9.9C77.8,109.5,73.4,113.9,68,113.9z M73.5,76.3v10.9H62.4V65.7H68
	c9,0,16.3-7.3,16.3-16.3c0-9-7.3-16.3-16.3-16.3c-9,0-16.3,7.3-16.3,16.3H40.5C40.5,34.3,52.8,22,68,22c15.1,0,27.4,12.3,27.4,27.4
	C95.4,62.6,86,73.7,73.5,76.3z"/>
</svg>
