<?xml version="1.0" encoding="utf-8"?>
<!-- Generator: Adobe Illustrator 25.1.0, SVG Export Plug-In . SVG Version: 6.00 Build 0)  -->
<svg version="1.1" id="Layer_1" xmlns="http://www.w3.org/2000/svg" xmlns:xlink="http://www.w3.org/1999/xlink" x="0px" y="0px"
	 viewBox="0 0 104 128.6" style="enable-background:new 0 0 104 128.6;" xml:space="preserve">
<style type="text/css">
	.st0{fill:#35688C;}
	.st1{fill:#7EB728;}
	.st2{fill:#DD0B15;}
	.st3{fill:#010202;}
	.st4{fill:#FFFFFF;}
	.st5{fill:#253D7F;}
	.st6{fill:#159AD7;}
	.st7{fill:#243064;}
	.st8{fill:#2A2D6B;}
	.st9{opacity:0;}
	.st10{fill:#EB6126;}
	.st11{fill:#E52428;}
	.st12{fill:#F59E21;}
	.st13{fill:#2B6DB5;}
	.st14{fill:#F5B1C6;}
	.st15{fill:#0A0C0B;}
</style>
<path class="st3" d="M91.8,50.4V39.8C91.8,17.8,74,0,52,0S12.2,17.8,12.2,39.8v10.7C5.4,50.8,0,56.4,0,63.3v52.5
	c0,7.1,5.8,12.8,12.8,12.8h78.3c7.1,0,12.8-5.8,12.8-12.8V63.3C104,56.4,98.6,50.8,91.8,50.4z M52,13c14.8,0,26.8,12,26.8,26.8v10.6
	H25.2V39.8C25.2,25,37.2,13,52,13z"/>
</svg>
