<?xml version="1.0" encoding="utf-8"?>
<!-- Generator: Adobe Illustrator 25.1.0, SVG Export Plug-In . SVG Version: 6.00 Build 0)  -->
<svg version="1.1" id="Layer_1" xmlns="http://www.w3.org/2000/svg" xmlns:xlink="http://www.w3.org/1999/xlink" x="0px" y="0px"
	 viewBox="0 0 136.7 136.7" style="enable-background:new 0 0 136.7 136.7;" xml:space="preserve">
<style type="text/css">
	.st0{fill:#35688C;}
	.st1{fill:#7EB728;}
	.st2{fill:#DD0B15;}
	.st3{fill:#010202;}
	.st4{fill:#FFFFFF;}
	.st5{fill:#253D7F;}
	.st6{fill:#159AD7;}
	.st7{fill:#243064;}
	.st8{fill:#2A2D6B;}
	.st9{opacity:0;}
	.st10{fill:#EB6126;}
	.st11{fill:#E52428;}
	.st12{fill:#F59E21;}
	.st13{fill:#2B6DB5;}
	.st14{fill:#F5B1C6;}
	.st15{fill:#0A0C0B;}
</style>
<g>
	<path class="st0" d="M62.2,34.1c-14.1,0-25.6,11.5-25.6,25.6s11.5,25.6,25.6,25.6c14.1,0,25.6-11.5,25.6-25.6S76.3,34.1,62.2,34.1z
		"/>
	<path class="st0" d="M68.3,0C30.6,0,0,30.6,0,68.3s30.6,68.3,68.3,68.3s68.3-30.6,68.3-68.3S106.1,0,68.3,0z M101.5,107.6
		L82.7,88.8c-5.8,4.1-12.9,6.5-20.5,6.5c-19.6,0-35.6-16-35.6-35.6c0-19.6,16-35.6,35.6-35.6s35.6,16,35.6,35.6
		c0,7.6-2.4,14.7-6.5,20.5L110.1,99L101.5,107.6z"/>
</g>
</svg>
